<svg width="128" height="128" viewBox="0 0 128 128" fill="none" xmlns="http://www.w3.org/2000/svg">
<g clip-path="url(#clip0)">
<circle cx="64" cy="64" r="64" fill="#004E79"/>
<path d="M34.2642 21.0145L20 20.5L20.5094 55L74 46.8841L70.434 40.7971L57.6981 29.6377L34.2642 21.0145Z" fill="#55A6D8" stroke="#55A6D8"/>
<path d="M117.037 99.8187C107.037 110.819 116.44 91.0297 93.5 77.5C70.5601 63.9703 62.3889 71.7526 70.5 58C78.6111 44.2474 81 50 104 63C125.5 87 125.037 87.3187 117.037 99.8187Z" fill="#55A6D8"/>
<path d="M123.669 87.144C120.232 96.0052 114.864 103.99 107.956 110.517C101.048 117.045 92.7726 121.952 83.7312 124.883C74.6897 127.813 65.1091 128.692 55.6853 127.458C46.2614 126.223 37.2309 122.905 29.2496 117.744C21.2682 112.583 14.5365 105.71 9.54337 97.6225C4.5502 89.5354 1.42095 80.4376 0.382874 70.9901C-0.655199 61.5425 0.423979 51.9824 3.54202 43.004C6.66007 34.0256 11.7387 25.8544 18.409 19.0838L64 64L123.669 87.144Z" fill="#55A6D8"/>
<circle cx="64" cy="64" r="18.5" fill="#004E79" stroke="#004E79" stroke-width="3"/>
<path d="M19 20.0134C36.1339 19.6804 65.8214 25.4222 76 51" stroke="#004E79" stroke-linecap="square"/>
<path d="M123 88C117.171 76.8627 98.8114 53.2706 72 48" stroke="#004E79"/>
<ellipse cx="34.5" cy="20.5" rx="3.5" ry="0.5" fill="#004E79"/>
<ellipse cx="71.159" cy="40.6541" rx="1" ry="2.5" transform="rotate(-31.503 71.159 40.6541)" fill="#004E79"/>
<path d="M119.226 78.3639L108.104 63.3227L102.84 60.8916L102 61.5L105.5 65L118.199 79.7881L119.639 80.3294L119.226 78.3639Z" fill="#004E79" stroke="#004E79"/>
<path d="M103 62L100.5 60L100 60.5L102 62.5L103 62Z" stroke="#004E79"/>
<ellipse cx="58" cy="29.5" rx="1" ry="0.5" transform="rotate(25.1016 58 29.5)" fill="#004E79"/>
</g>
<defs>
<clipPath id="clip0">
<rect width="128" height="128" fill="white"/>
</clipPath>
</defs>
</svg>
